<svg width="33" height="33" viewBox="0 0 33 33" fill="none" xmlns="http://www.w3.org/2000/svg">
<rect x="0.16452" y="0.161224" width="32" height="32" rx="4" fill="#272727"/>
<path fill-rule="evenodd" clip-rule="evenodd" d="M9.69905 27.8724V11.255H14.3078V27.8724H9.69905ZM17.9996 27.8724V11.255H22.6084V27.8724H17.9996Z" fill="white"/>
<path d="M20.3148 9.1129C19.6296 9.1129 19.0418 8.88571 18.5514 8.43132C18.0681 7.96974 17.8265 7.41798 17.8265 6.77608C17.8265 6.14139 18.0681 5.59685 18.5514 5.14247C19.0418 4.68088 19.6296 4.45008 20.3148 4.45008C21 4.45008 21.5842 4.68088 22.0674 5.14247C22.5579 5.59685 22.8031 6.14139 22.8031 6.77608C22.8031 7.41798 22.5579 7.96974 22.0674 8.43132C21.5842 8.88571 21 9.1129 20.3148 9.1129Z" fill="url(#paint0_linear_1219_1066)"/>
<path d="M12.0142 9.1129C11.3291 9.1129 10.7412 8.88571 10.2508 8.43132C9.76757 7.96974 9.52596 7.41798 9.52596 6.77608C9.52596 6.14139 9.76757 5.59685 10.2508 5.14247C10.7412 4.68088 11.3291 4.45008 12.0142 4.45008C12.6994 4.45008 13.2836 4.68088 13.7668 5.14247C14.2573 5.59685 14.5025 6.14139 14.5025 6.77608C14.5025 7.41798 14.2573 7.96974 13.7668 8.43132C13.2836 8.88571 12.6994 9.1129 12.0142 9.1129Z" fill="url(#paint1_radial_1219_1066)"/>
<defs>
<linearGradient id="paint0_linear_1219_1066" x1="12.9723" y1="2.76272" x2="10.0629" y2="3.77305" gradientUnits="userSpaceOnUse">
<stop stop-color="#0284C7"/>
<stop offset="1" stop-color="#06AC70"/>
</linearGradient>
<radialGradient id="paint1_radial_1219_1066" cx="0" cy="0" r="1" gradientUnits="userSpaceOnUse" gradientTransform="translate(14.306 8.40849) rotate(-135) scale(7.18072 21.4004)">
<stop stop-color="#0284C7"/>
<stop offset="1" stop-color="#06AC70"/>
</radialGradient>
</defs>
</svg>
