<svg width="110" height="31" viewBox="0 0 110 31" fill="none" xmlns="http://www.w3.org/2000/svg">
<path d="M0.752319 23.5835V20.8356L8.88791 10.7635V10.6445H1.0336V6.96612H14.4379V9.96288L6.79992 19.7862V19.9052H14.7191V23.5835H0.752319Z" fill="white"/>
<path fill-rule="evenodd" clip-rule="evenodd" d="M16.8748 23.5835V6.96613H21.4835V23.5835H16.8748ZM25.1753 23.5835V6.96613H29.7841V23.5835H25.1753Z" fill="white"/>
<path d="M27.4905 4.82404C26.8053 4.82404 26.2175 4.59685 25.7271 4.14247C25.2438 3.68088 25.0022 3.12913 25.0022 2.48722C25.0022 1.85253 25.2438 1.308 25.7271 0.853616C26.2175 0.392022 26.8053 0.161224 27.4905 0.161224C28.1757 0.161224 28.7599 0.392022 29.2431 0.853616C29.7336 1.308 29.9788 1.85253 29.9788 2.48722C29.9788 3.12913 29.7336 3.68088 29.2431 4.14247C28.7599 4.59685 28.1757 4.82404 27.4905 4.82404Z" fill="url(#paint0_linear_1204_1072)"/>
<path d="M19.1899 4.82404C18.5048 4.82404 17.9169 4.59685 17.4265 4.14247C16.9433 3.68088 16.7017 3.12913 16.7017 2.48722C16.7017 1.85253 16.9433 1.308 17.4265 0.853616C17.9169 0.392022 18.5048 0.161224 19.1899 0.161224C19.8751 0.161224 20.4593 0.392022 20.9425 0.853616C21.433 1.308 21.6782 1.85253 21.6782 2.48722C21.6782 3.12913 21.433 3.68088 20.9425 4.14247C20.4593 4.59685 19.8751 4.82404 19.1899 4.82404Z" fill="url(#paint1_radial_1204_1072)"/>
<path d="M33.4759 23.5835V6.96612H37.8683V9.89797H38.063C38.4092 8.92429 38.9862 8.15617 39.794 7.5936C40.6018 7.03104 41.5682 6.74975 42.6934 6.74975C43.8329 6.74975 44.803 7.03464 45.6036 7.60442C46.4042 8.16699 46.9379 8.93151 47.2047 9.89797H47.3778C47.7168 8.94593 48.3299 8.18502 49.217 7.61524C50.1113 7.03825 51.1679 6.74975 52.3868 6.74975C53.9375 6.74975 55.1961 7.2438 56.1625 8.2319C57.1362 9.21279 57.6231 10.6048 57.6231 12.4079V23.5835H53.0251V13.3166C53.0251 12.3935 52.7799 11.7011 52.2895 11.2395C51.799 10.7779 51.186 10.5471 50.4503 10.5471C49.6137 10.5471 48.9609 10.8139 48.4921 11.3477C48.0233 11.8742 47.7889 12.5702 47.7889 13.4357V23.5835H43.3208V13.2193C43.3208 12.4043 43.0864 11.7552 42.6176 11.2719C42.156 10.7887 41.5466 10.5471 40.7893 10.5471C40.2772 10.5471 39.8156 10.6769 39.4045 10.9366C39.0006 11.189 38.6797 11.546 38.4417 12.0076C38.2036 12.462 38.0846 12.9957 38.0846 13.6088V23.5835H33.4759Z" fill="white"/>
<path d="M68.75 30.1612C67.257 30.1612 65.9768 29.9557 64.9094 29.5446C63.8492 29.1407 63.0053 28.5889 62.3778 27.8893C61.7504 27.1897 61.3428 26.4036 61.1553 25.5309L65.4179 24.9575C65.5477 25.2892 65.7532 25.5994 66.0345 25.8879C66.3158 26.1764 66.6872 26.4072 67.1488 26.5803C67.6176 26.7606 68.1874 26.8507 68.8582 26.8507C69.8607 26.8507 70.6865 26.6055 71.3356 26.1151C71.992 25.6318 72.3201 24.8204 72.3201 23.6809V20.6408H72.1254C71.9234 21.1024 71.6205 21.5388 71.2166 21.9499C70.8127 22.361 70.2934 22.6964 69.6588 22.956C69.0241 23.2157 68.2668 23.3455 67.3868 23.3455C66.1391 23.3455 65.0031 23.057 63.979 22.48C62.962 21.8958 62.1506 21.0051 61.5448 19.8078C60.9462 18.6033 60.6469 17.0815 60.6469 15.2424C60.6469 13.3599 60.9534 11.7876 61.5664 10.5254C62.1795 9.26328 62.9945 8.31845 64.0114 7.69097C65.0356 7.06349 66.1571 6.74975 67.376 6.74975C68.3064 6.74975 69.0854 6.90843 69.7128 7.22577C70.3403 7.53591 70.8452 7.92537 71.2274 8.39418C71.6169 8.85578 71.9162 9.31016 72.1254 9.75733H72.2985V6.96612H76.8748V23.7458C76.8748 25.1594 76.5286 26.3423 75.8362 27.2943C75.1438 28.2463 74.1845 28.9604 72.9584 29.4364C71.7395 29.9196 70.3367 30.1612 68.75 30.1612ZM68.8474 19.8835C69.5902 19.8835 70.2177 19.6996 70.7298 19.3318C71.2491 18.9568 71.6458 18.423 71.9198 17.7306C72.2011 17.031 72.3418 16.1944 72.3418 15.2207C72.3418 14.247 72.2047 13.4032 71.9307 12.6892C71.6566 11.9679 71.2599 11.409 70.7406 11.0123C70.2213 10.6156 69.5902 10.4173 68.8474 10.4173C68.09 10.4173 67.4518 10.6228 66.9325 11.0339C66.4132 11.4378 66.0201 12.0004 65.7532 12.7216C65.4864 13.4429 65.3529 14.2759 65.3529 15.2207C65.3529 16.18 65.4864 17.0094 65.7532 17.709C66.0273 18.4014 66.4204 18.9387 66.9325 19.321C67.4518 19.696 68.09 19.8835 68.8474 19.8835Z" fill="white"/>
<path d="M91.1986 16.5081V6.96612H95.8073V23.5835H91.3825V20.5651H91.2094C90.8344 21.5388 90.2105 22.3213 89.3378 22.9128C88.4723 23.5042 87.4157 23.7999 86.168 23.7999C85.0572 23.7999 84.08 23.5474 83.2361 23.0426C82.3923 22.5377 81.7323 21.8201 81.2563 20.8897C80.7875 19.9593 80.5495 18.845 80.5423 17.5467V6.96612H85.151V16.7245C85.1582 17.7054 85.4215 18.4807 85.9408 19.0505C86.4601 19.6203 87.1561 19.9052 88.0288 19.9052C88.5841 19.9052 89.1034 19.779 89.5866 19.5265C90.0699 19.2669 90.4593 18.8846 90.755 18.3798C91.058 17.8749 91.2058 17.251 91.1986 16.5081Z" fill="white"/>
<path d="M99.4938 23.5835V6.96612H103.962V9.86551H104.135C104.438 8.83414 104.946 8.0552 105.66 7.52869C106.374 6.99497 107.197 6.72812 108.127 6.72812C108.358 6.72812 108.607 6.74254 108.874 6.77139C109.14 6.80024 109.375 6.83991 109.577 6.89039V10.9798C109.36 10.9149 109.061 10.8572 108.679 10.8067C108.297 10.7562 107.947 10.731 107.629 10.731C106.951 10.731 106.346 10.8789 105.812 11.1746C105.285 11.4631 104.867 11.867 104.557 12.3862C104.254 12.9055 104.103 13.5042 104.103 14.1821V23.5835H99.4938Z" fill="white"/>
<defs>
<linearGradient id="paint0_linear_1204_1072" x1="29" y1="-2" x2="24.5" y2="8" gradientUnits="userSpaceOnUse">
<stop stop-color="#0284C7"/>
<stop offset="1" stop-color="#06AC70"/>
</linearGradient>
<radialGradient id="paint1_radial_1204_1072" cx="0" cy="0" r="1" gradientUnits="userSpaceOnUse" gradientTransform="translate(39.9312 5.23127) rotate(-171.118) scale(42.1224 38.2991)">
<stop stop-color="#0284C7"/>
<stop offset="1" stop-color="#06AC70"/>
</radialGradient>
</defs>
</svg>
