<svg width="111" height="32" viewBox="0 0 111 32" fill="none" xmlns="http://www.w3.org/2000/svg">
<mask id="path-1-outside-1_1204_1064" maskUnits="userSpaceOnUse" x="-0.247681" y="0.161224" width="111" height="32" fill="black">
<rect fill="white" x="-0.247681" y="0.161224" width="111" height="32"/>
<path d="M0.752319 24.5835V21.8356L8.88791 11.7635V11.6445H1.0336V7.96612H14.4379V10.9629L6.79992 20.7862V20.9052H14.7191V24.5835H0.752319Z"/>
<path fill-rule="evenodd" clip-rule="evenodd" d="M16.8748 24.5835V7.96613H21.4835V24.5835H16.8748ZM25.1753 24.5835V7.96613H29.7841V24.5835H25.1753Z"/>
<path d="M27.4905 5.82404C26.8053 5.82404 26.2175 5.59685 25.7271 5.14247C25.2438 4.68088 25.0022 4.12913 25.0022 3.48722C25.0022 2.85253 25.2438 2.308 25.7271 1.85362C26.2175 1.39202 26.8053 1.16122 27.4905 1.16122C28.1757 1.16122 28.7599 1.39202 29.2431 1.85362C29.7336 2.308 29.9788 2.85253 29.9788 3.48722C29.9788 4.12913 29.7336 4.68088 29.2431 5.14247C28.7599 5.59685 28.1757 5.82404 27.4905 5.82404Z"/>
<path d="M19.1899 5.82404C18.5048 5.82404 17.9169 5.59685 17.4265 5.14247C16.9433 4.68088 16.7017 4.12913 16.7017 3.48722C16.7017 2.85253 16.9433 2.308 17.4265 1.85362C17.9169 1.39202 18.5048 1.16122 19.1899 1.16122C19.8751 1.16122 20.4593 1.39202 20.9425 1.85362C21.433 2.308 21.6782 2.85253 21.6782 3.48722C21.6782 4.12913 21.433 4.68088 20.9425 5.14247C20.4593 5.59685 19.8751 5.82404 19.1899 5.82404Z"/>
<path d="M33.4759 24.5835V7.96612H37.8683V10.898H38.063C38.4092 9.92429 38.9862 9.15617 39.794 8.5936C40.6018 8.03104 41.5682 7.74975 42.6934 7.74975C43.8329 7.74975 44.803 8.03464 45.6036 8.60442C46.4042 9.16699 46.9379 9.93151 47.2047 10.898H47.3778C47.7168 9.94593 48.3299 9.18502 49.217 8.61524C50.1113 8.03825 51.1679 7.74975 52.3868 7.74975C53.9375 7.74975 55.1961 8.2438 56.1625 9.2319C57.1362 10.2128 57.6231 11.6048 57.6231 13.4079V24.5835H53.0251V14.3166C53.0251 13.3935 52.7799 12.7011 52.2895 12.2395C51.799 11.7779 51.186 11.5471 50.4503 11.5471C49.6137 11.5471 48.9609 11.8139 48.4921 12.3477C48.0233 12.8742 47.7889 13.5702 47.7889 14.4357V24.5835H43.3208V14.2193C43.3208 13.4043 43.0864 12.7552 42.6176 12.2719C42.156 11.7887 41.5466 11.5471 40.7893 11.5471C40.2772 11.5471 39.8156 11.6769 39.4045 11.9366C39.0006 12.189 38.6797 12.546 38.4417 13.0076C38.2036 13.462 38.0846 13.9957 38.0846 14.6088V24.5835H33.4759Z"/>
<path d="M68.75 31.1612C67.257 31.1612 65.9768 30.9557 64.9094 30.5446C63.8492 30.1407 63.0053 29.5889 62.3778 28.8893C61.7504 28.1897 61.3428 27.4036 61.1553 26.5309L65.4179 25.9575C65.5477 26.2892 65.7532 26.5994 66.0345 26.8879C66.3158 27.1764 66.6872 27.4072 67.1488 27.5803C67.6176 27.7606 68.1874 27.8507 68.8582 27.8507C69.8607 27.8507 70.6865 27.6055 71.3356 27.1151C71.992 26.6318 72.3201 25.8204 72.3201 24.6809V21.6408H72.1254C71.9234 22.1024 71.6205 22.5388 71.2166 22.9499C70.8127 23.361 70.2934 23.6964 69.6588 23.956C69.0241 24.2157 68.2668 24.3455 67.3868 24.3455C66.1391 24.3455 65.0031 24.057 63.979 23.48C62.962 22.8958 62.1506 22.0051 61.5448 20.8078C60.9462 19.6033 60.6469 18.0815 60.6469 16.2424C60.6469 14.3599 60.9534 12.7876 61.5664 11.5254C62.1795 10.2633 62.9945 9.31845 64.0114 8.69097C65.0356 8.06349 66.1571 7.74975 67.376 7.74975C68.3064 7.74975 69.0854 7.90843 69.7128 8.22577C70.3403 8.53591 70.8452 8.92537 71.2274 9.39418C71.6169 9.85578 71.9162 10.3102 72.1254 10.7573H72.2985V7.96612H76.8748V24.7458C76.8748 26.1594 76.5286 27.3423 75.8362 28.2943C75.1438 29.2463 74.1845 29.9604 72.9584 30.4364C71.7395 30.9196 70.3367 31.1612 68.75 31.1612ZM68.8474 20.8835C69.5902 20.8835 70.2177 20.6996 70.7298 20.3318C71.2491 19.9568 71.6458 19.423 71.9198 18.7306C72.2011 18.031 72.3418 17.1944 72.3418 16.2207C72.3418 15.247 72.2047 14.4032 71.9307 13.6892C71.6566 12.9679 71.2599 12.409 70.7406 12.0123C70.2213 11.6156 69.5902 11.4173 68.8474 11.4173C68.09 11.4173 67.4518 11.6228 66.9325 12.0339C66.4132 12.4378 66.0201 13.0004 65.7532 13.7216C65.4864 14.4429 65.3529 15.2759 65.3529 16.2207C65.3529 17.18 65.4864 18.0094 65.7532 18.709C66.0273 19.4014 66.4204 19.9387 66.9325 20.321C67.4518 20.696 68.09 20.8835 68.8474 20.8835Z"/>
<path d="M91.1986 17.5081V7.96612H95.8073V24.5835H91.3825V21.5651H91.2094C90.8344 22.5388 90.2105 23.3213 89.3378 23.9128C88.4723 24.5042 87.4157 24.7999 86.168 24.7999C85.0572 24.7999 84.08 24.5474 83.2361 24.0426C82.3923 23.5377 81.7323 22.8201 81.2563 21.8897C80.7875 20.9593 80.5495 19.845 80.5423 18.5467V7.96612H85.151V17.7245C85.1582 18.7054 85.4215 19.4807 85.9408 20.0505C86.4601 20.6203 87.1561 20.9052 88.0288 20.9052C88.5841 20.9052 89.1034 20.779 89.5866 20.5265C90.0699 20.2669 90.4593 19.8846 90.755 19.3798C91.058 18.8749 91.2058 18.251 91.1986 17.5081Z"/>
<path d="M99.4938 24.5835V7.96612H103.962V10.8655H104.135C104.438 9.83414 104.946 9.0552 105.66 8.52869C106.374 7.99497 107.197 7.72812 108.127 7.72812C108.358 7.72812 108.607 7.74254 108.874 7.77139C109.14 7.80024 109.375 7.83991 109.577 7.89039V11.9798C109.36 11.9149 109.061 11.8572 108.679 11.8067C108.297 11.7562 107.947 11.731 107.629 11.731C106.951 11.731 106.346 11.8789 105.812 12.1746C105.285 12.4631 104.867 12.867 104.557 13.3862C104.254 13.9055 104.103 14.5042 104.103 15.1821V24.5835H99.4938Z"/>
</mask>
<path d="M0.752319 24.5835V21.8356L8.88791 11.7635V11.6445H1.0336V7.96612H14.4379V10.9629L6.79992 20.7862V20.9052H14.7191V24.5835H0.752319Z" fill="white"/>
<path fill-rule="evenodd" clip-rule="evenodd" d="M16.8748 24.5835V7.96613H21.4835V24.5835H16.8748ZM25.1753 24.5835V7.96613H29.7841V24.5835H25.1753Z" fill="white"/>
<path d="M27.4905 5.82404C26.8053 5.82404 26.2175 5.59685 25.7271 5.14247C25.2438 4.68088 25.0022 4.12913 25.0022 3.48722C25.0022 2.85253 25.2438 2.308 25.7271 1.85362C26.2175 1.39202 26.8053 1.16122 27.4905 1.16122C28.1757 1.16122 28.7599 1.39202 29.2431 1.85362C29.7336 2.308 29.9788 2.85253 29.9788 3.48722C29.9788 4.12913 29.7336 4.68088 29.2431 5.14247C28.7599 5.59685 28.1757 5.82404 27.4905 5.82404Z" fill="url(#paint0_linear_1204_1064)"/>
<path d="M19.1899 5.82404C18.5048 5.82404 17.9169 5.59685 17.4265 5.14247C16.9433 4.68088 16.7017 4.12913 16.7017 3.48722C16.7017 2.85253 16.9433 2.308 17.4265 1.85362C17.9169 1.39202 18.5048 1.16122 19.1899 1.16122C19.8751 1.16122 20.4593 1.39202 20.9425 1.85362C21.433 2.308 21.6782 2.85253 21.6782 3.48722C21.6782 4.12913 21.433 4.68088 20.9425 5.14247C20.4593 5.59685 19.8751 5.82404 19.1899 5.82404Z" fill="url(#paint1_radial_1204_1064)"/>
<path d="M33.4759 24.5835V7.96612H37.8683V10.898H38.063C38.4092 9.92429 38.9862 9.15617 39.794 8.5936C40.6018 8.03104 41.5682 7.74975 42.6934 7.74975C43.8329 7.74975 44.803 8.03464 45.6036 8.60442C46.4042 9.16699 46.9379 9.93151 47.2047 10.898H47.3778C47.7168 9.94593 48.3299 9.18502 49.217 8.61524C50.1113 8.03825 51.1679 7.74975 52.3868 7.74975C53.9375 7.74975 55.1961 8.2438 56.1625 9.2319C57.1362 10.2128 57.6231 11.6048 57.6231 13.4079V24.5835H53.0251V14.3166C53.0251 13.3935 52.7799 12.7011 52.2895 12.2395C51.799 11.7779 51.186 11.5471 50.4503 11.5471C49.6137 11.5471 48.9609 11.8139 48.4921 12.3477C48.0233 12.8742 47.7889 13.5702 47.7889 14.4357V24.5835H43.3208V14.2193C43.3208 13.4043 43.0864 12.7552 42.6176 12.2719C42.156 11.7887 41.5466 11.5471 40.7893 11.5471C40.2772 11.5471 39.8156 11.6769 39.4045 11.9366C39.0006 12.189 38.6797 12.546 38.4417 13.0076C38.2036 13.462 38.0846 13.9957 38.0846 14.6088V24.5835H33.4759Z" fill="white"/>
<path d="M68.75 31.1612C67.257 31.1612 65.9768 30.9557 64.9094 30.5446C63.8492 30.1407 63.0053 29.5889 62.3778 28.8893C61.7504 28.1897 61.3428 27.4036 61.1553 26.5309L65.4179 25.9575C65.5477 26.2892 65.7532 26.5994 66.0345 26.8879C66.3158 27.1764 66.6872 27.4072 67.1488 27.5803C67.6176 27.7606 68.1874 27.8507 68.8582 27.8507C69.8607 27.8507 70.6865 27.6055 71.3356 27.1151C71.992 26.6318 72.3201 25.8204 72.3201 24.6809V21.6408H72.1254C71.9234 22.1024 71.6205 22.5388 71.2166 22.9499C70.8127 23.361 70.2934 23.6964 69.6588 23.956C69.0241 24.2157 68.2668 24.3455 67.3868 24.3455C66.1391 24.3455 65.0031 24.057 63.979 23.48C62.962 22.8958 62.1506 22.0051 61.5448 20.8078C60.9462 19.6033 60.6469 18.0815 60.6469 16.2424C60.6469 14.3599 60.9534 12.7876 61.5664 11.5254C62.1795 10.2633 62.9945 9.31845 64.0114 8.69097C65.0356 8.06349 66.1571 7.74975 67.376 7.74975C68.3064 7.74975 69.0854 7.90843 69.7128 8.22577C70.3403 8.53591 70.8452 8.92537 71.2274 9.39418C71.6169 9.85578 71.9162 10.3102 72.1254 10.7573H72.2985V7.96612H76.8748V24.7458C76.8748 26.1594 76.5286 27.3423 75.8362 28.2943C75.1438 29.2463 74.1845 29.9604 72.9584 30.4364C71.7395 30.9196 70.3367 31.1612 68.75 31.1612ZM68.8474 20.8835C69.5902 20.8835 70.2177 20.6996 70.7298 20.3318C71.2491 19.9568 71.6458 19.423 71.9198 18.7306C72.2011 18.031 72.3418 17.1944 72.3418 16.2207C72.3418 15.247 72.2047 14.4032 71.9307 13.6892C71.6566 12.9679 71.2599 12.409 70.7406 12.0123C70.2213 11.6156 69.5902 11.4173 68.8474 11.4173C68.09 11.4173 67.4518 11.6228 66.9325 12.0339C66.4132 12.4378 66.0201 13.0004 65.7532 13.7216C65.4864 14.4429 65.3529 15.2759 65.3529 16.2207C65.3529 17.18 65.4864 18.0094 65.7532 18.709C66.0273 19.4014 66.4204 19.9387 66.9325 20.321C67.4518 20.696 68.09 20.8835 68.8474 20.8835Z" fill="white"/>
<path d="M91.1986 17.5081V7.96612H95.8073V24.5835H91.3825V21.5651H91.2094C90.8344 22.5388 90.2105 23.3213 89.3378 23.9128C88.4723 24.5042 87.4157 24.7999 86.168 24.7999C85.0572 24.7999 84.08 24.5474 83.2361 24.0426C82.3923 23.5377 81.7323 22.8201 81.2563 21.8897C80.7875 20.9593 80.5495 19.845 80.5423 18.5467V7.96612H85.151V17.7245C85.1582 18.7054 85.4215 19.4807 85.9408 20.0505C86.4601 20.6203 87.1561 20.9052 88.0288 20.9052C88.5841 20.9052 89.1034 20.779 89.5866 20.5265C90.0699 20.2669 90.4593 19.8846 90.755 19.3798C91.058 18.8749 91.2058 18.251 91.1986 17.5081Z" fill="white"/>
<path d="M99.4938 24.5835V7.96612H103.962V10.8655H104.135C104.438 9.83414 104.946 9.0552 105.66 8.52869C106.374 7.99497 107.197 7.72812 108.127 7.72812C108.358 7.72812 108.607 7.74254 108.874 7.77139C109.14 7.80024 109.375 7.83991 109.577 7.89039V11.9798C109.36 11.9149 109.061 11.8572 108.679 11.8067C108.297 11.7562 107.947 11.731 107.629 11.731C106.951 11.731 106.346 11.8789 105.812 12.1746C105.285 12.4631 104.867 12.867 104.557 13.3862C104.254 13.9055 104.103 14.5042 104.103 15.1821V24.5835H99.4938Z" fill="white"/>
<path d="M0.752319 24.5835H0.252319V25.0835H0.752319V24.5835ZM0.752319 21.8356L0.363357 21.5214L0.252319 21.6589V21.8356H0.752319ZM8.88791 11.7635L9.27688 12.0776L9.38791 11.9402V11.7635H8.88791ZM8.88791 11.6445H9.38791V11.1445H8.88791V11.6445ZM1.0336 11.6445H0.533603V12.1445H1.0336V11.6445ZM1.0336 7.96612V7.46612H0.533603V7.96612H1.0336ZM14.4379 7.96612H14.9379V7.46612H14.4379V7.96612ZM14.4379 10.9629L14.8326 11.2698L14.9379 11.1344V10.9629H14.4379ZM6.79992 20.7862L6.4052 20.4793L6.29992 20.6147V20.7862H6.79992ZM6.79992 20.9052H6.29992V21.4052H6.79992V20.9052ZM14.7191 20.9052H15.2191V20.4052H14.7191V20.9052ZM14.7191 24.5835V25.0835H15.2191V24.5835H14.7191ZM16.8748 24.5835H16.3748V25.0835H16.8748V24.5835ZM16.8748 7.96613V7.46613H16.3748V7.96613H16.8748ZM21.4835 7.96613H21.9835V7.46613H21.4835V7.96613ZM21.4835 24.5835V25.0835H21.9835V24.5835H21.4835ZM17.4265 5.14247L17.0811 5.50407L17.0867 5.50924L17.4265 5.14247ZM17.4265 1.85362L17.769 2.21787L17.7692 2.21772L17.4265 1.85362ZM20.9425 1.85362L20.5971 2.21521L20.6027 2.2204L20.9425 1.85362ZM20.9425 5.14247L21.2851 5.50672L21.2852 5.50658L20.9425 5.14247ZM25.1753 24.5835H24.6753V25.0835H25.1753V24.5835ZM25.1753 7.96613V7.46613H24.6753V7.96613H25.1753ZM29.7841 7.96613H30.2841V7.46613H29.7841V7.96613ZM29.7841 24.5835V25.0835H30.2841V24.5835H29.7841ZM25.7271 5.14247L25.3817 5.50407L25.3873 5.50924L25.7271 5.14247ZM25.7271 1.85362L26.0696 2.21788L26.0698 2.21771L25.7271 1.85362ZM29.2431 1.85362L28.8977 2.21521L28.9033 2.22039L29.2431 1.85362ZM29.2431 5.14247L29.5856 5.50672L29.5858 5.50657L29.2431 5.14247ZM33.4759 24.5835H32.9759V25.0835H33.4759V24.5835ZM33.4759 7.96612V7.46612H32.9759V7.96612H33.4759ZM37.8683 7.96612H38.3683V7.46612H37.8683V7.96612ZM37.8683 10.898H37.3683V11.398H37.8683V10.898ZM38.063 10.898V11.398H38.4159L38.5341 11.0655L38.063 10.898ZM39.794 8.5936L39.5082 8.1833V8.1833L39.794 8.5936ZM45.6036 8.60442L45.3136 9.01179L45.3161 9.01352L45.6036 8.60442ZM47.2047 10.898L46.7228 11.031L46.8241 11.398H47.2047V10.898ZM47.3778 10.898V11.398H47.7305L47.8489 11.0657L47.3778 10.898ZM49.217 8.61524L49.4872 9.03594L49.4881 9.03539L49.217 8.61524ZM56.1625 9.2319L55.8051 9.58153L55.8077 9.58415L56.1625 9.2319ZM57.6231 24.5835V25.0835H58.1231V24.5835H57.6231ZM53.0251 24.5835H52.5251V25.0835H53.0251V24.5835ZM52.2895 12.2395L51.9468 12.6036V12.6036L52.2895 12.2395ZM48.4921 12.3477L48.8656 12.6802L48.8678 12.6776L48.4921 12.3477ZM47.7889 24.5835V25.0835H48.2889V24.5835H47.7889ZM43.3208 24.5835H42.8208V25.0835H43.3208V24.5835ZM42.6176 12.2719L42.2561 12.6173L42.2588 12.6201L42.6176 12.2719ZM39.4045 11.9366L39.6695 12.3606L39.6715 12.3593L39.4045 11.9366ZM38.4417 13.0076L38.8846 13.2396L38.8861 13.2367L38.4417 13.0076ZM38.0846 24.5835V25.0835H38.5846V24.5835H38.0846ZM64.9094 30.5446L65.0891 30.078L65.0874 30.0773L64.9094 30.5446ZM62.3778 28.8893L62.0056 29.2232L62.3778 28.8893ZM61.1553 26.5309L61.0887 26.0353L60.5529 26.1074L60.6665 26.6359L61.1553 26.5309ZM65.4179 25.9575L65.8835 25.7753L65.7404 25.4096L65.3512 25.4619L65.4179 25.9575ZM66.0345 26.8879L66.3925 26.5388L66.0345 26.8879ZM67.1488 27.5803L67.3283 27.1136L67.3244 27.1121L67.1488 27.5803ZM71.3356 27.1151L71.0392 26.7124L71.0342 26.7161L71.3356 27.1151ZM72.3201 21.6408H72.8201V21.1408H72.3201V21.6408ZM72.1254 21.6408V21.1408H71.7984L71.6673 21.4404L72.1254 21.6408ZM71.2166 22.9499L71.5733 23.3003L71.2166 22.9499ZM63.979 23.48L63.7299 23.9136L63.7336 23.9156L63.979 23.48ZM61.5448 20.8078L61.097 21.0304L61.0987 21.0336L61.5448 20.8078ZM61.5664 11.5254L61.1167 11.307V11.307L61.5664 11.5254ZM64.0114 8.69097L63.7502 8.26463L63.7489 8.26545L64.0114 8.69097ZM69.7128 8.22577L69.4872 8.67197L69.4913 8.67401L69.7128 8.22577ZM71.2274 9.39418L70.8399 9.7102L70.8453 9.71662L71.2274 9.39418ZM72.1254 10.7573L71.6725 10.9692L71.8073 11.2573H72.1254V10.7573ZM72.2985 10.7573V11.2573H72.7985V10.7573H72.2985ZM72.2985 7.96612V7.46612H71.7985V7.96612H72.2985ZM76.8748 7.96612H77.3748V7.46612H76.8748V7.96612ZM75.8362 28.2943L75.4318 28.0002L75.8362 28.2943ZM72.9584 30.4364L72.7775 29.9703L72.7742 29.9716L72.9584 30.4364ZM70.7298 20.3318L71.0215 20.7379L71.0225 20.7371L70.7298 20.3318ZM71.9198 18.7306L71.4559 18.5441L71.4549 18.5466L71.9198 18.7306ZM71.9307 13.6892L71.4633 13.8668L71.4639 13.8683L71.9307 13.6892ZM66.9325 12.0339L67.2394 12.4286L67.2428 12.4259L66.9325 12.0339ZM65.7532 13.7216L66.2222 13.8951L65.7532 13.7216ZM65.7532 18.709L65.286 18.8872L65.2883 18.893L65.7532 18.709ZM66.9325 20.321L66.6333 20.7217L66.6397 20.7263L66.9325 20.321ZM91.1986 17.5081H90.6986L90.6986 17.513L91.1986 17.5081ZM91.1986 7.96612V7.46612H90.6986V7.96612H91.1986ZM95.8073 7.96612H96.3073V7.46612H95.8073V7.96612ZM95.8073 24.5835V25.0835H96.3073V24.5835H95.8073ZM91.3825 24.5835H90.8825V25.0835H91.3825V24.5835ZM91.3825 21.5651H91.8825V21.0651H91.3825V21.5651ZM91.2094 21.5651V21.0651H90.8662L90.7428 21.3854L91.2094 21.5651ZM89.3378 23.9128L89.0573 23.4988L89.0557 23.4999L89.3378 23.9128ZM83.2361 24.0426L83.4928 23.6135L83.2361 24.0426ZM81.2563 21.8897L80.8098 22.1147L80.8112 22.1174L81.2563 21.8897ZM80.5423 18.5467H80.0423L80.0423 18.5495L80.5423 18.5467ZM80.5423 7.96612V7.46612H80.0423V7.96612H80.5423ZM85.151 7.96612H85.651V7.46612H85.151V7.96612ZM85.151 17.7245H84.651L84.651 17.7282L85.151 17.7245ZM85.9408 20.0505L86.3103 19.7137L85.9408 20.0505ZM89.5866 20.5265L89.8182 20.9697L89.8233 20.967L89.5866 20.5265ZM90.755 19.3798L90.3263 19.1225L90.3236 19.1271L90.755 19.3798ZM99.4938 24.5835H98.9938V25.0835H99.4938V24.5835ZM99.4938 7.96612V7.46612H98.9938V7.96612H99.4938ZM103.962 7.96612H104.462V7.46612H103.962V7.96612ZM103.962 10.8655H103.462V11.3655H103.962V10.8655ZM104.135 10.8655V11.3655H104.509L104.615 11.0064L104.135 10.8655ZM105.66 8.52869L105.957 8.93113L105.96 8.92918L105.66 8.52869ZM108.874 7.77139L108.927 7.27429V7.27429L108.874 7.77139ZM109.577 7.89039H110.077V7.5L109.698 7.40532L109.577 7.89039ZM109.577 11.9798L109.433 12.4587L110.077 12.6518V11.9798H109.577ZM105.812 12.1746L106.052 12.6131L106.054 12.6119L105.812 12.1746ZM104.557 13.3862L104.128 13.1299L104.125 13.1343L104.557 13.3862ZM104.103 24.5835V25.0835H104.603V24.5835H104.103ZM1.25232 24.5835V21.8356H0.252319V24.5835H1.25232ZM1.14128 22.1498L9.27688 12.0776L8.49895 11.4493L0.363357 21.5214L1.14128 22.1498ZM9.38791 11.7635V11.6445H8.38791V11.7635H9.38791ZM8.88791 11.1445H1.0336V12.1445H8.88791V11.1445ZM1.5336 11.6445V7.96612H0.533603V11.6445H1.5336ZM1.0336 8.46612H14.4379V7.46612H1.0336V8.46612ZM13.9379 7.96612V10.9629H14.9379V7.96612H13.9379ZM14.0431 10.656L6.4052 20.4793L7.19465 21.0931L14.8326 11.2698L14.0431 10.656ZM6.29992 20.7862V20.9052H7.29992V20.7862H6.29992ZM6.79992 21.4052H14.7191V20.4052H6.79992V21.4052ZM14.2191 20.9052V24.5835H15.2191V20.9052H14.2191ZM14.7191 24.0835H0.752319V25.0835H14.7191V24.0835ZM17.3748 24.5835V7.96613H16.3748V24.5835H17.3748ZM16.8748 8.46613H21.4835V7.46613H16.8748V8.46613ZM20.9835 7.96613V24.5835H21.9835V7.96613H20.9835ZM21.4835 24.0835H16.8748V25.0835H21.4835V24.0835ZM19.1899 5.32404C18.6273 5.32404 18.1618 5.14211 17.7663 4.77569L17.0867 5.50924C17.6721 6.0516 18.3822 6.32404 19.1899 6.32404V5.32404ZM17.7719 4.78091C17.3828 4.40932 17.2017 3.98637 17.2017 3.48722H16.2017C16.2017 4.27188 16.5037 4.95245 17.0811 5.50403L17.7719 4.78091ZM17.2017 3.48722C17.2017 2.99732 17.3812 2.58255 17.769 2.21787L17.084 1.48936C16.5054 2.03344 16.2017 2.70774 16.2017 3.48722H17.2017ZM17.7692 2.21772C18.1651 1.84508 18.6297 1.66122 19.1899 1.66122V0.661224C18.3798 0.661224 17.6688 0.938962 17.0838 1.48952L17.7692 2.21772ZM19.1899 1.66122C19.7501 1.66122 20.2096 1.84491 20.5972 2.21517L21.2879 1.49206C20.7091 0.939138 20.0001 0.661224 19.1899 0.661224V1.66122ZM20.6027 2.2204C20.9972 2.58584 21.1782 2.99991 21.1782 3.48722H22.1782C22.1782 2.70515 21.8688 2.03015 21.2824 1.48683L20.6027 2.2204ZM21.1782 3.48722C21.1782 3.98382 20.9955 4.40604 20.5999 4.77836L21.2852 5.50658C21.8705 4.95572 22.1782 4.27443 22.1782 3.48722H21.1782ZM20.6 4.77821C20.2129 5.14227 19.7525 5.32404 19.1899 5.32404V6.32404C19.9977 6.32404 20.7058 6.05144 21.2851 5.50672L20.6 4.77821ZM25.6753 24.5835V7.96613H24.6753V24.5835H25.6753ZM25.1753 8.46613H29.7841V7.46613H25.1753V8.46613ZM29.2841 7.96613V24.5835H30.2841V7.96613H29.2841ZM29.7841 24.0835H25.1753V25.0835H29.7841V24.0835ZM27.4905 5.32404C26.9279 5.32404 26.4624 5.14211 26.0669 4.77569L25.3873 5.50924C25.9727 6.0516 26.6828 6.32404 27.4905 6.32404V5.32404ZM26.0724 4.7809C25.6834 4.40931 25.5022 3.98637 25.5022 3.48722H24.5022C24.5022 4.27188 24.8043 4.95245 25.3817 5.50403L26.0724 4.7809ZM25.5022 3.48722C25.5022 2.99732 25.6818 2.58256 26.0696 2.21788L25.3846 1.48935C24.8059 2.03344 24.5022 2.70774 24.5022 3.48722H25.5022ZM26.0698 2.21771C26.4657 1.84508 26.9303 1.66122 27.4905 1.66122V0.661224C26.6804 0.661224 25.9694 0.938961 25.3844 1.48952L26.0698 2.21771ZM27.4905 1.66122C28.0507 1.66122 28.5101 1.84491 28.8978 2.21517L29.5885 1.49206C29.0097 0.939138 28.3007 0.661224 27.4905 0.661224V1.66122ZM28.9033 2.22039C29.2978 2.58584 29.4788 2.99992 29.4788 3.48722H30.4788C30.4788 2.70515 30.1694 2.03015 29.5829 1.48684L28.9033 2.22039ZM29.4788 3.48722C29.4788 3.98381 29.296 4.40604 28.9004 4.77836L29.5858 5.50657C30.1711 4.95573 30.4788 4.27444 30.4788 3.48722H29.4788ZM28.9006 4.77821C28.5134 5.14227 28.0531 5.32404 27.4905 5.32404V6.32404C28.2983 6.32404 29.0064 6.05144 29.5856 5.50672L28.9006 4.77821ZM33.9759 24.5835V7.96612H32.9759V24.5835H33.9759ZM33.4759 8.46612H37.8683V7.46612H33.4759V8.46612ZM37.3683 7.96612V10.898H38.3683V7.96612H37.3683ZM37.8683 11.398H38.063V10.398H37.8683V11.398ZM38.5341 11.0655C38.8472 10.1849 39.362 9.50378 40.0797 9.00391L39.5082 8.1833C38.6104 8.80856 37.9712 9.6637 37.5919 10.7305L38.5341 11.0655ZM40.0797 9.00391C40.7921 8.50782 41.6553 8.24975 42.6934 8.24975V7.24975C41.4812 7.24975 40.4115 7.55426 39.5082 8.1833L40.0797 9.00391ZM42.6934 8.24975C43.7462 8.24975 44.6107 8.51149 45.3136 9.01178L45.8935 8.19706C44.9953 7.55779 43.9197 7.24975 42.6934 7.24975V8.24975ZM45.3161 9.01352C46.0193 9.50765 46.4859 10.1734 46.7228 11.031L47.6867 10.7649C47.3898 9.68966 46.789 8.82633 45.891 8.19533L45.3161 9.01352ZM47.2047 11.398H47.3778V10.398H47.2047V11.398ZM47.8489 11.0657C48.149 10.2226 48.6888 9.54872 49.4872 9.03594L48.9468 8.19454C47.9709 8.82133 47.2846 9.66924 46.9068 10.7303L47.8489 11.0657ZM49.4881 9.03539C50.2903 8.51778 51.2498 8.24975 52.3868 8.24975V7.24975C51.0861 7.24975 49.9323 7.55871 48.9459 8.19509L49.4881 9.03539ZM52.3868 8.24975C53.821 8.24975 54.9446 8.70173 55.8051 9.58152L56.52 8.88228C55.4476 7.78588 54.0541 7.24975 52.3868 7.24975V8.24975ZM55.8077 9.58415C56.6626 10.4454 57.1231 11.695 57.1231 13.4079H58.1231C58.1231 11.5146 57.6098 9.98019 56.5174 8.87966L55.8077 9.58415ZM57.1231 13.4079V24.5835H58.1231V13.4079H57.1231ZM57.6231 24.0835H53.0251V25.0835H57.6231V24.0835ZM53.5251 24.5835V14.3166H52.5251V24.5835H53.5251ZM53.5251 14.3166C53.5251 13.3084 53.2559 12.4624 52.6322 11.8754L51.9468 12.6036C52.304 12.9397 52.5251 13.4785 52.5251 14.3166H53.5251ZM52.6322 11.8754C52.04 11.3181 51.3005 11.0471 50.4503 11.0471V12.0471C51.0714 12.0471 51.558 12.2377 51.9468 12.6036L52.6322 11.8754ZM50.4503 11.0471C49.4979 11.0471 48.6973 11.3564 48.1165 12.0177L48.8678 12.6776C49.2246 12.2715 49.7294 12.0471 50.4503 12.0471V11.0471ZM48.1187 12.0152C47.5509 12.6529 47.2889 13.4767 47.2889 14.4357H48.2889C48.2889 13.6636 48.4958 13.0954 48.8656 12.6802L48.1187 12.0152ZM47.2889 14.4357V24.5835H48.2889V14.4357H47.2889ZM47.7889 24.0835H43.3208V25.0835H47.7889V24.0835ZM43.8208 24.5835V14.2193H42.8208V24.5835H43.8208ZM43.8208 14.2193C43.8208 13.3034 43.5542 12.5193 42.9765 11.9238L42.2588 12.6201C42.6187 12.9911 42.8208 13.5052 42.8208 14.2193H43.8208ZM42.9792 11.9266C42.4103 11.331 41.6632 11.0471 40.7893 11.0471V12.0471C41.43 12.0471 41.9018 12.2464 42.2561 12.6173L42.9792 11.9266ZM40.7893 11.0471C40.188 11.0471 39.6329 11.201 39.1375 11.5138L39.6715 12.3593C39.9984 12.1529 40.3665 12.0471 40.7893 12.0471V11.0471ZM39.1395 11.5126C38.6526 11.8169 38.2726 12.2444 37.9972 12.7785L38.8861 13.2367C39.0867 12.8476 39.3487 12.5611 39.6695 12.3606L39.1395 11.5126ZM37.9987 12.7756C37.7166 13.3143 37.5846 13.9306 37.5846 14.6088H38.5846C38.5846 14.0608 38.6907 13.6097 38.8846 13.2396L37.9987 12.7756ZM37.5846 14.6088V24.5835H38.5846V14.6088H37.5846ZM38.0846 24.0835H33.4759V25.0835H38.0846V24.0835ZM68.75 30.6612C67.3007 30.6612 66.0846 30.4614 65.0891 30.078L64.7297 31.0112C65.869 31.4499 67.2134 31.6612 68.75 31.6612V30.6612ZM65.0874 30.0773C64.0863 29.696 63.3144 29.1847 62.75 28.5555L62.0056 29.2232C62.6962 29.9931 63.612 30.5854 64.7314 31.0118L65.0874 30.0773ZM62.75 28.5555C62.1775 27.9171 61.8124 27.2088 61.6442 26.4258L60.6665 26.6359C60.8733 27.5983 61.3232 28.4623 62.0056 29.2232L62.75 28.5555ZM61.222 27.0264L65.4845 26.453L65.3512 25.4619L61.0887 26.0353L61.222 27.0264ZM64.9522 26.1397C65.1094 26.5413 65.3547 26.9068 65.6765 27.2369L66.3925 26.5388C66.1518 26.2919 65.9859 26.0371 65.8835 25.7753L64.9522 26.1397ZM65.6765 27.2369C66.0193 27.5885 66.4579 27.8552 66.9733 28.0484L67.3244 27.1121C66.9166 26.9592 66.6123 26.7643 66.3925 26.5388L65.6765 27.2369ZM66.9693 28.0469C67.5111 28.2553 68.1454 28.3507 68.8582 28.3507V27.3507C68.2294 27.3507 67.7242 27.2658 67.3283 27.1136L66.9693 28.0469ZM68.8582 28.3507C69.9437 28.3507 70.8826 28.084 71.6371 27.514L71.0342 26.7161C70.4905 27.127 69.7777 27.3507 68.8582 27.3507V28.3507ZM71.6321 27.5177C72.4626 26.9063 72.8201 25.9117 72.8201 24.6809H71.8201C71.8201 25.7292 71.5214 26.3574 71.0392 26.7124L71.6321 27.5177ZM72.8201 24.6809V21.6408H71.8201V24.6809H72.8201ZM72.3201 21.1408H72.1254V22.1408H72.3201V21.1408ZM71.6673 21.4404C71.493 21.8389 71.2273 22.2256 70.86 22.5995L71.5733 23.3003C72.0138 22.852 72.3539 22.366 72.5835 21.8413L71.6673 21.4404ZM70.86 22.5995C70.5118 22.9539 70.053 23.2545 69.4694 23.4933L69.8481 24.4188C70.5339 24.1382 71.1137 23.7681 71.5733 23.3003L70.86 22.5995ZM69.4694 23.4933C68.9092 23.7224 68.2194 23.8455 67.3868 23.8455V24.8455C68.3141 24.8455 69.1389 24.7089 69.8481 24.4188L69.4694 23.4933ZM67.3868 23.8455C66.2196 23.8455 65.169 23.5766 64.2244 23.0444L63.7336 23.9156C64.8373 24.5374 66.0586 24.8455 67.3868 24.8455V23.8455ZM64.228 23.0465C63.3074 22.5175 62.5593 21.7052 61.9909 20.5821L61.0987 21.0336C61.742 22.3049 62.6167 23.2741 63.7299 23.9136L64.228 23.0465ZM61.9925 20.5853C61.4385 19.4706 61.1469 18.0312 61.1469 16.2424H60.1469C60.1469 18.1319 60.4538 19.7361 61.097 21.0303L61.9925 20.5853ZM61.1469 16.2424C61.1469 14.411 61.4455 12.9189 62.0162 11.7439L61.1167 11.307C60.4613 12.6564 60.1469 14.3089 60.1469 16.2424H61.1469ZM62.0162 11.7439C62.5951 10.552 63.351 9.68597 64.274 9.11649L63.7489 8.26545C62.6379 8.95093 61.7639 9.97456 61.1167 11.307L62.0162 11.7439ZM64.2727 9.11732C65.217 8.53875 66.2479 8.24975 67.376 8.24975V7.24975C66.0664 7.24975 64.8542 7.58824 63.7502 8.26463L64.2727 9.11732ZM67.376 8.24975C68.2523 8.24975 68.9485 8.39953 69.4872 8.67196L69.9385 7.77959C69.2222 7.41732 68.3605 7.24975 67.376 7.24975V8.24975ZM69.4913 8.67401C70.0647 8.95739 70.5095 9.30486 70.8399 9.71015L71.615 9.07821C71.1809 8.54589 70.616 8.11442 69.9344 7.77753L69.4913 8.67401ZM70.8453 9.71662C71.2125 10.1518 71.4856 10.5695 71.6725 10.9692L72.5783 10.5455C72.3469 10.0508 72.0213 9.55975 71.6096 9.07175L70.8453 9.71662ZM72.1254 11.2573H72.2985V10.2573H72.1254V11.2573ZM72.7985 10.7573V7.96612H71.7985V10.7573H72.7985ZM72.2985 8.46612H76.8748V7.46612H72.2985V8.46612ZM76.3748 7.96612V24.7458H77.3748V7.96612H76.3748ZM76.3748 24.7458C76.3748 26.0755 76.0504 27.1497 75.4318 28.0002L76.2405 28.5884C77.0068 27.5348 77.3748 26.2433 77.3748 24.7458H76.3748ZM75.4318 28.0002C74.8023 28.8658 73.925 29.5248 72.7775 29.9703L73.1394 30.9025C74.4441 30.396 75.4853 29.6269 76.2405 28.5884L75.4318 28.0002ZM72.7742 29.9716C71.6248 30.4272 70.2865 30.6612 68.75 30.6612V31.6612C70.3869 31.6612 71.8542 31.412 73.1427 30.9012L72.7742 29.9716ZM68.8474 21.3835C69.6757 21.3835 70.41 21.1771 71.0215 20.7379L70.4381 19.9257C70.0254 20.2222 69.5048 20.3835 68.8474 20.3835V21.3835ZM71.0225 20.7371C71.6311 20.2977 72.0814 19.681 72.3847 18.9147L71.4549 18.5466C71.2101 19.165 70.8671 19.6158 70.437 19.9265L71.0225 20.7371ZM72.3837 18.9172C72.6947 18.1438 72.8418 17.2405 72.8418 16.2207H71.8418C71.8418 17.1482 71.7075 17.9183 71.4559 18.5441L72.3837 18.9172ZM72.8418 16.2207C72.8418 15.2018 72.6986 14.2945 72.3975 13.51L71.4639 13.8683C71.7109 14.5119 71.8418 15.2923 71.8418 16.2207H72.8418ZM72.3981 13.5116C72.0969 12.7192 71.6499 12.0777 71.0441 11.6149L70.4371 12.4096C70.8699 12.7402 71.2162 13.2167 71.4633 13.8668L72.3981 13.5116ZM71.0441 11.6149C70.4259 11.1427 69.6842 10.9173 68.8474 10.9173V11.9173C69.4963 11.9173 70.0167 12.0885 70.4371 12.4096L71.0441 11.6149ZM68.8474 10.9173C67.9944 10.9173 67.2422 11.151 66.6221 11.6419L67.2428 12.4259C67.6613 12.0946 68.1857 11.9173 68.8474 11.9173V10.9173ZM66.6255 11.6392C66.021 12.1094 65.5779 12.7545 65.2843 13.5481L66.2222 13.8951C66.4622 13.2463 66.8054 12.7662 67.2394 12.4286L66.6255 11.6392ZM65.2843 13.5481C64.9928 14.336 64.8529 15.2298 64.8529 16.2207H65.8529C65.8529 15.322 65.9799 14.5498 66.2222 13.8951L65.2843 13.5481ZM64.8529 16.2207C64.8529 17.2245 64.9924 18.1172 65.2861 18.8872L66.2204 18.5308C65.9804 17.9016 65.8529 17.1354 65.8529 16.2207H64.8529ZM65.2883 18.893C65.5908 19.6571 66.0354 20.2753 66.6334 20.7217L67.2316 19.9203C66.8053 19.6021 66.4638 19.1457 66.2181 18.525L65.2883 18.893ZM66.6397 20.7263C67.2589 21.1735 68.0046 21.3835 68.8474 21.3835V20.3835C68.1755 20.3835 67.6446 20.2185 67.2252 19.9156L66.6397 20.7263ZM91.6986 17.5081V7.96612H90.6986V17.5081H91.6986ZM91.1986 8.46612H95.8073V7.46612H91.1986V8.46612ZM95.3073 7.96612V24.5835H96.3073V7.96612H95.3073ZM95.8073 24.0835H91.3825V25.0835H95.8073V24.0835ZM91.8825 24.5835V21.5651H90.8825V24.5835H91.8825ZM91.3825 21.0651H91.2094V22.0651H91.3825V21.0651ZM90.7428 21.3854C90.4049 22.2628 89.8465 22.964 89.0573 23.4988L89.6183 24.3267C90.5745 23.6786 91.2639 22.8148 91.676 21.7448L90.7428 21.3854ZM89.0557 23.4999C88.2881 24.0244 87.3346 24.2999 86.168 24.2999V25.2999C87.4968 25.2999 88.6565 24.9839 89.6199 24.3256L89.0557 23.4999ZM86.168 24.2999C85.1357 24.2999 84.2494 24.0662 83.4928 23.6135L82.9794 24.4716C83.9105 25.0287 84.9788 25.2999 86.168 25.2999V24.2999ZM83.4928 23.6135C82.7345 23.1598 82.1376 22.5144 81.7014 21.6619L80.8112 22.1174C81.3271 23.1258 82.05 23.9156 82.9794 24.4716L83.4928 23.6135ZM81.7028 21.6647C81.2762 20.8181 81.0492 19.7835 81.0423 18.5439L80.0423 18.5495C80.0498 19.9064 80.2987 21.1005 80.8098 22.1147L81.7028 21.6647ZM81.0423 18.5467V7.96612H80.0423V18.5467H81.0423ZM80.5423 8.46612H85.151V7.46612H80.5423V8.46612ZM84.651 7.96612V17.7245H85.651V7.96612H84.651ZM84.651 17.7282C84.6589 18.7977 84.9481 19.7036 85.5712 20.3873L86.3103 19.7137C85.8948 19.2578 85.6575 18.6131 85.651 17.7208L84.651 17.7282ZM85.5712 20.3873C86.1983 21.0753 87.0359 21.4052 88.0288 21.4052V20.4052C87.2762 20.4052 86.7219 20.1653 86.3103 19.7137L85.5712 20.3873ZM88.0288 21.4052C88.6632 21.4052 89.2621 21.2602 89.8181 20.9697L89.3551 20.0834C88.9447 20.2977 88.5051 20.4052 88.0288 20.4052V21.4052ZM89.8233 20.967C90.3929 20.6609 90.8475 20.2111 91.1865 19.6325L90.3236 19.1271C90.0711 19.5581 89.7468 19.8728 89.35 20.0861L89.8233 20.967ZM91.1838 19.637C91.5451 19.0347 91.7065 18.3145 91.6986 17.5033L90.6986 17.513C90.7052 18.1875 90.5708 18.715 90.3263 19.1225L91.1838 19.637ZM99.9938 24.5835V7.96612H98.9938V24.5835H99.9938ZM99.4938 8.46612H103.962V7.46612H99.4938V8.46612ZM103.462 7.96612V10.8655H104.462V7.96612H103.462ZM103.962 11.3655H104.135V10.3655H103.962V11.3655ZM104.615 11.0064C104.894 10.0571 105.348 9.37998 105.957 8.93112L105.364 8.12627C104.544 8.73042 103.982 9.61119 103.655 10.7246L104.615 11.0064ZM105.96 8.92918C106.583 8.46302 107.299 8.22812 108.127 8.22812V7.22812C107.094 7.22812 106.165 7.52693 105.361 8.12821L105.96 8.92918ZM108.127 8.22812C108.337 8.22812 108.568 8.24127 108.82 8.26849L108.927 7.27429C108.645 7.24381 108.378 7.22812 108.127 7.22812V8.22812ZM108.82 8.26849C109.07 8.29555 109.281 8.33185 109.455 8.37547L109.698 7.40532C109.469 7.34797 109.211 7.30493 108.927 7.27429L108.82 8.26849ZM109.077 7.89039V11.9798H110.077V7.89039H109.077ZM109.72 11.5009C109.467 11.4248 109.137 11.3629 108.744 11.311L108.613 12.3024C108.985 12.3515 109.254 12.405 109.433 12.4587L109.72 11.5009ZM108.744 11.311C108.345 11.2583 107.973 11.231 107.629 11.231V12.231C107.921 12.231 108.248 12.2542 108.613 12.3024L108.744 11.311ZM107.629 11.231C106.876 11.231 106.185 11.396 105.57 11.7372L106.054 12.6119C106.506 12.3617 107.027 12.231 107.629 12.231V11.231ZM105.572 11.7361C104.966 12.0677 104.483 12.5347 104.128 13.1299L104.986 13.6426C105.251 13.1992 105.604 12.8584 106.052 12.6131L105.572 11.7361ZM104.125 13.1343C103.772 13.7395 103.603 14.4272 103.603 15.1821H104.603C104.603 14.5812 104.736 14.0716 104.989 13.6382L104.125 13.1343ZM103.603 15.1821V24.5835H104.603V15.1821H103.603ZM104.103 24.0835H99.4938V25.0835H104.103V24.0835Z" fill="black" fill-opacity="0.5" mask="url(#path-1-outside-1_1204_1064)"/>
<defs>
<linearGradient id="paint0_linear_1204_1064" x1="29" y1="-0.999999" x2="24.5" y2="9" gradientUnits="userSpaceOnUse">
<stop stop-color="#0284C7"/>
<stop offset="1" stop-color="#06AC70"/>
</linearGradient>
<radialGradient id="paint1_radial_1204_1064" cx="0" cy="0" r="1" gradientUnits="userSpaceOnUse" gradientTransform="translate(39.9312 6.23127) rotate(-171.118) scale(42.1224 38.2991)">
<stop stop-color="#0284C7"/>
<stop offset="1" stop-color="#06AC70"/>
</radialGradient>
</defs>
</svg>
